HIERARCHY
ROOT Hips
{
	OFFSET -1.602300 6.242603 43.997101
	CHANNELS 6 Xposition Yposition Zposition Zrotation Xrotation Yrotation
	JOINT Chest
	{
		OFFSET -0.204900 1.598101 7.917301
		CHANNELS 6 Xposition Yposition Zposition Zrotation Xrotation Yrotation
		JOINT Chest2
		{
			OFFSET 0.000000 0.000000 3.404099
			CHANNELS 6 Xposition Yposition Zposition Zrotation Xrotation Yrotation
			JOINT Neck
			{
				OFFSET 0.000000 0.000000 7.928600
				CHANNELS 6 Xposition Yposition Zposition Zrotation Xrotation Yrotation
				JOINT Head
				{
					OFFSET 0.000000 0.000000 2.173897
					CHANNELS 6 Xposition Yposition Zposition Zrotation Xrotation Yrotation
					End Site
					{
						OFFSET 0.000000 0.000001 10.404503
					}
				}
			}
			JOINT LeftCollar
			{
				OFFSET 2.833800 -1.396299 4.843300
				CHANNELS 6 Xposition Yposition Zposition Zrotation Xrotation Yrotation
				JOINT LeftShoulder
				{
					OFFSET 4.363600 0.000000 0.000000
					CHANNELS 6 Xposition Yposition Zposition Zrotation Xrotation Yrotation
					JOINT LeftElbow
					{
						OFFSET 0.000000 -0.000001 -10.306900
						CHANNELS 6 Xposition Yposition Zposition Zrotation Xrotation Yrotation
						JOINT LeftWrist
						{
							OFFSET 0.000000 -0.000001 -12.404900
							CHANNELS 6 Xposition Yposition Zposition Zrotation Xrotation Yrotation
							End Site
							{
								OFFSET 0.000000 0.000000 -2.173901
							}
						}
					}
				}
			}
			JOINT RightCollar
			{
				OFFSET -2.354800 -1.897200 5.063099
				CHANNELS 6 Xposition Yposition Zposition Zrotation Xrotation Yrotation
				JOINT RightShoulder
				{
					OFFSET -4.375800 0.000000 0.000000
					CHANNELS 6 Xposition Yposition Zposition Zrotation Xrotation Yrotation
					JOINT RightElbow
					{
						OFFSET 0.000000 -0.000001 -10.005001
						CHANNELS 6 Xposition Yposition Zposition Zrotation Xrotation Yrotation
						JOINT RightWrist
						{
							OFFSET 0.000000 -0.000001 -13.174900
							CHANNELS 6 Xposition Yposition Zposition Zrotation Xrotation Yrotation
							End Site
							{
								OFFSET 0.000000 0.000000 -2.173901
							}
						}
					}
				}
			}
		}
	}
	JOINT LeftHip
	{
		OFFSET 2.240600 0.386800 -2.614101
		CHANNELS 6 Xposition Yposition Zposition Zrotation Xrotation Yrotation
		JOINT LeftKnee
		{
			OFFSET 0.000000 -0.000001 -18.592899
			CHANNELS 6 Xposition Yposition Zposition Zrotation Xrotation Yrotation
			JOINT LeftAnkle
			{
				OFFSET 0.000000 -0.000001 -18.765800
				CHANNELS 6 Xposition Yposition Zposition Zrotation Xrotation Yrotation
				End Site
				{
					OFFSET 0.000000 -8.655000 0.000000
				}
			}
		}
	}
	JOINT RightHip
	{
		OFFSET -2.014900 -0.220900 -2.615898
		CHANNELS 6 Xposition Yposition Zposition Zrotation Xrotation Yrotation
		JOINT RightKnee
		{
			OFFSET 0.000000 -0.000001 -18.633900
			CHANNELS 6 Xposition Yposition Zposition Zrotation Xrotation Yrotation
			JOINT RightAnkle
			{
				OFFSET 0.000000 -0.000001 -18.285101
				CHANNELS 6 Xposition Yposition Zposition Zrotation Xrotation Yrotation
				End Site
				{
					OFFSET 0.000000 -7.524500 0.000000
				}
			}
		}
	}
}
MOTION
Frames: 7
Frame Time: 0.041667
-3.722799 23.187202 8.858109 -9.838040 6.219380 4.093589 -0.204900 1.598103 7.917313 9.395875 -7.256399 -2.751013 -0.000000 0.000006 3.404104 -8.815667 -18.593192 -2.807972 -0.000000 0.000001 7.928601 8.964701 -15.565019 -6.197418 0.000000 0.000001 2.173901 0.921912 -21.360991 3.644413 2.833801 -1.396299 4.843305 38.742797 -5.233579 12.605266 4.363597 0.000002 -0.000006 -55.633650 8.501781 -138.667211 -0.000005 0.000003 -10.306891 620.850153 -179.026375 539.978363 -0.000000 0.000007 -12.404904 52.747430 360.122161 -322.162046 -2.354801 -1.897201 5.063101 7.510028 12.033153 -5.030923 -4.375794 -0.000003 -0.000010 38.953115 -16.118913 154.316527 -0.000000 0.000003 -10.004991 -591.908456 -177.784934 -539.209557 0.000000 0.000002 -13.174891 -424.867819 -13.713773 -23.828573 2.240598 0.386804 -2.614102 142.218158 -28.536240 109.677074 0.000000 0.000002 -18.592894 -154.548999 48.431526 164.704193 0.000001 -0.000001 -18.765799 -51.086663 19.934785 4.966192 -2.014896 -0.220894 -2.615900 -122.211742 -6.959387 -102.814967 -0.000001 -0.000000 -18.633879 158.615653 10.781156 -167.401270 -0.000005 -0.000008 -18.285084 -23.642580 33.201297 -198.079447
-3.719999 23.191902 8.849216 -9.847774 6.125715 4.087160 -0.204899 1.598105 7.917312 9.411113 -7.160573 -2.757100 0.000001 -0.000002 3.404100 -8.833473 -18.574747 -2.806175 0.000001 0.000002 7.928600 9.034995 -15.614260 -6.231463 0.000000 0.000003 2.173908 0.834738 -21.367646 3.645236 2.833802 -1.396298 4.843306 38.506308 -5.128202 12.676758 4.363597 -0.000003 -0.000014 -54.412873 8.749018 -138.531208 -0.000002 -0.000002 -10.306901 620.891790 -179.086194 539.901428 0.000005 0.000006 -12.404899 53.127462 360.143307 -322.166745 -2.354800 -1.897201 5.063104 7.389490 11.941060 -4.925299 -4.375795 0.000003 -0.000017 38.075617 -16.495715 153.575888 0.000002 -0.000001 -10.004987 -592.112487 -177.730292 -539.075740 -0.000001 0.000001 -13.174899 -425.104362 -13.610067 -23.905920 2.240598 0.386807 -2.614100 142.191261 -28.546455 109.613833 -0.000001 -0.000002 -18.592892 -154.584051 48.432704 164.709261 0.000001 -0.000000 -18.765797 -51.081909 19.935878 4.971244 -2.014898 -0.220892 -2.615898 -122.185978 -7.157847 -102.775639 -0.000000 0.000002 -18.633883 158.517680 10.821781 -167.427102 -0.000005 -0.000007 -18.285082 -23.612644 33.199524 -198.105061
-3.717299 23.196402 8.839912 -9.849779 6.030369 4.083540 -0.204900 1.598100 7.917309 9.417868 -7.061873 -2.762375 -0.000000 0.000004 3.404096 -8.866077 -18.563440 -2.807459 -0.000001 0.000001 7.928603 9.079076 -15.667267 -6.243075 0.000000 -0.000002 2.173900 0.760456 -21.394816 3.641022 2.833800 -1.396299 4.843306 38.267842 -5.003504 12.802085 4.363597 0.000003 -0.000001 -53.356628 8.889209 -138.432389 -0.000001 -0.000002 -10.306898 620.985172 -179.157884 539.844492 0.000005 0.000008 -12.404898 53.250136 360.119156 -322.202153 -2.354802 -1.897203 5.063098 7.299591 11.892683 -4.824352 -4.375794 -0.000000 -0.000013 37.301579 -16.826787 153.058146 -0.000001 0.000003 -10.004987 -592.215104 -177.891853 -538.958261 0.000002 0.000005 -13.174899 -425.295717 -13.485137 -23.950716 2.240597 0.386799 -2.614098 142.159924 -28.549407 109.558113 -0.000001 0.000003 -18.592892 -154.648487 48.453123 164.734109 0.000002 0.000000 -18.765799 -51.054619 19.943237 4.971907 -2.014895 -0.220901 -2.615898 -122.167728 -7.343457 -102.729781 -0.000002 0.000002 -18.633881 158.424202 10.858432 -167.453685 -0.000005 -0.000005 -18.285082 -23.589624 33.197216 -198.124499
-3.715400 23.200603 8.830711 -9.834493 5.944945 3.923241 -0.204901 1.598101 7.917305 9.424335 -6.941193 -2.598939 -0.000000 -0.000000 3.404097 -8.917990 -18.563194 -2.813490 -0.000002 -0.000005 7.928600 9.123436 -15.739355 -6.267192 0.000000 -0.000001 2.173899 0.718168 -21.437524 3.618530 2.833800 -1.396304 4.843304 38.036852 -4.869818 12.980437 4.363598 0.000005 -0.000005 -52.436359 8.962044 -138.371218 -0.000004 0.000002 -10.306892 620.975774 -179.251812 539.787992 0.000005 0.000007 -12.404904 53.294040 360.092819 -322.219338 -2.354802 -1.897204 5.063103 7.221858 11.878873 -4.730106 -4.375794 0.000001 -0.000015 36.563775 -17.271812 152.442746 0.000000 -0.000001 -10.004992 -592.248927 -177.928122 -538.828597 -0.000003 0.000001 -13.174892 -425.348801 -13.331968 -23.942632 2.240597 0.386805 -2.614101 142.049411 -28.433125 109.371116 -0.000000 -0.000002 -18.592894 -154.750872 48.493749 164.782152 0.000001 0.000001 -18.765800 -51.002061 19.956862 4.968036 -2.014899 -0.220898 -2.615899 -122.178547 -7.641317 -102.772156 -0.000001 0.000001 -18.633883 158.337978 10.891892 -167.479080 -0.000005 -0.000006 -18.285084 -23.572246 33.194979 -198.139184
-3.714900 23.205202 8.822002 -9.826285 5.856816 3.953280 -0.204900 1.598102 7.917305 9.416447 -6.847768 -2.638612 0.000000 0.000003 3.404108 -8.980347 -18.557926 -2.819298 -0.000000 0.000001 7.928604 9.092562 -15.812320 -6.245212 0.000000 0.000001 2.173900 0.730605 -21.490046 3.572792 2.833800 -1.396301 4.843307 37.800463 -4.767681 13.064239 4.363596 0.000002 -0.000004 -51.635714 8.885834 -138.234163 -0.000001 -0.000002 -10.306896 620.962987 -179.392309 539.705593 0.000002 0.000004 -12.404898 53.518808 360.307396 -322.004733 -2.354801 -1.897202 5.063104 7.215390 11.864820 -4.605848 -4.375800 0.000001 -0.000011 35.634289 -17.700828 151.793714 0.000002 -0.000000 -10.004992 -592.443505 -177.957628 -538.734012 0.000000 0.000006 -13.174884 -425.221787 -13.137660 -23.902129 2.240597 0.386803 -2.614104 142.027459 -28.411526 109.350202 -0.000001 0.000001 -18.592894 -154.844787 48.500115 164.798408 0.000002 -0.000001 -18.765799 -50.964437 19.965459 4.963455 -2.014898 -0.220898 -2.615898 -122.166539 -7.759092 -102.705794 -0.000001 -0.000001 -18.633884 158.260169 10.921737 -167.499926 -0.000005 -0.000007 -18.285084 -23.564255 33.193220 -198.145892
-3.714899 23.210600 8.813507 -9.830068 5.777094 4.019943 -0.204899 1.598103 7.917304 9.417971 -6.765634 -2.727740 0.000000 0.000002 3.404103 -9.053330 -18.553908 -2.825770 -0.000000 0.000002 7.928596 9.018280 -15.890020 -6.184190 0.000000 0.000004 2.173907 0.785255 -21.552225 3.503707 2.833800 -1.396297 4.843304 37.575551 -4.695493 13.102985 4.363598 0.000008 -0.000011 -50.948478 8.735349 -138.049243 -0.000003 0.000001 -10.306892 620.669235 -179.595357 539.568224 0.000003 0.000011 -12.404899 53.552276 360.290457 -322.050031 -2.354801 -1.897200 5.063102 7.153336 11.779576 -4.451139 -4.375793 -0.000001 -0.000016 34.887660 -18.193307 151.352867 0.000002 0.000001 -10.004994 -592.416403 -178.108097 -538.821001 -0.000002 0.000006 -13.174891 -424.817440 -12.894828 -23.677559 2.240599 0.386803 -2.614106 142.034358 -28.394669 109.367530 -0.000001 -0.000002 -18.592892 -154.945929 48.503028 164.812929 0.000002 -0.000000 -18.765799 -50.925050 19.974364 4.958645 -2.014893 -0.220896 -2.615901 -122.140298 -7.851567 -102.625812 -0.000002 -0.000000 -18.633883 158.168835 10.953493 -167.518080 -0.000004 -0.000006 -18.285084 -23.560171 33.191403 -198.149279
-3.716200 23.217306 8.805717 -9.844195 5.719649 4.132280 -0.204900 1.598100 7.917304 9.426194 -6.715259 -2.880915 -0.000000 0.000005 3.404105 -9.135657 -18.552110 -2.832452 -0.000001 0.000001 7.928601 9.042833 -15.956642 -6.136842 0.000001 0.000001 2.173912 0.854923 -21.576983 3.491027 2.833799 -1.396299 4.843307 37.322773 -4.606855 13.194985 4.363595 0.000004 -0.000008 -50.188759 8.648556 -137.894635 -0.000002 -0.000001 -10.306900 620.413021 -179.792449 539.417304 0.000003 0.000010 -12.404895 53.605524 360.277862 -322.097460 -2.354800 -1.897202 5.063101 7.124773 11.721146 -4.105692 -4.375798 -0.000001 -0.000014 33.902921 -18.676123 150.528927 -0.000001 0.000001 -10.004987 -592.713106 -178.131470 -538.816903 -0.000004 0.000007 -13.174900 -424.960655 -12.602737 -23.665108 2.240597 0.386804 -2.614106 142.076431 -28.378405 109.438878 0.000000 -0.000000 -18.592892 -155.051032 48.498117 164.822737 0.000001 -0.000001 -18.765799 -50.886829 19.983597 4.955043 -2.014896 -0.220898 -2.615900 -122.100806 -7.887018 -102.542395 -0.000002 -0.000000 -18.633883 158.080972 10.988593 -167.532273 -0.000005 -0.000007 -18.285084 -23.556382 33.191038 -198.152612
